<mxfile host="app.diagrams.net" modified="2024-03-11T22:29:00.439Z" agent="Mozilla/5.0 (Windows NT 10.0; Win64; x64) AppleWebKit/537.36 (KHTML, like Gecko) Chrome/122.0.0.0 Safari/537.36" etag="9DuyfGIvMlYwLN_iho7W" version="24.0.4" type="device">
  <diagram id="C5RBs43oDa-KdzZeNtuy" name="Page-1">
    <mxGraphModel dx="1257" dy="669" grid="1" gridSize="10" guides="1" tooltips="1" connect="1" arrows="1" fold="1" page="1" pageScale="1" pageWidth="827" pageHeight="1169" math="0" shadow="0">
      <root>
        <mxCell id="WIyWlLk6GJQsqaUBKTNV-0" />
        <mxCell id="WIyWlLk6GJQsqaUBKTNV-1" parent="WIyWlLk6GJQsqaUBKTNV-0" />
        <mxCell id="EokDFovthAWHypJDRWrs-2" value="" style="edgeStyle=orthogonalEdgeStyle;rounded=0;orthogonalLoop=1;jettySize=auto;html=1;" edge="1" parent="WIyWlLk6GJQsqaUBKTNV-1" source="EokDFovthAWHypJDRWrs-0" target="EokDFovthAWHypJDRWrs-1">
          <mxGeometry relative="1" as="geometry" />
        </mxCell>
        <mxCell id="EokDFovthAWHypJDRWrs-0" value="start" style="ellipse;whiteSpace=wrap;html=1;" vertex="1" parent="WIyWlLk6GJQsqaUBKTNV-1">
          <mxGeometry x="90" width="120" height="80" as="geometry" />
        </mxCell>
        <mxCell id="EokDFovthAWHypJDRWrs-4" value="" style="edgeStyle=orthogonalEdgeStyle;rounded=0;orthogonalLoop=1;jettySize=auto;html=1;" edge="1" parent="WIyWlLk6GJQsqaUBKTNV-1" source="EokDFovthAWHypJDRWrs-1" target="EokDFovthAWHypJDRWrs-3">
          <mxGeometry relative="1" as="geometry" />
        </mxCell>
        <mxCell id="EokDFovthAWHypJDRWrs-1" value="int[] numbers = { 23, 43, 53, 27, 3, 6 };&lt;div&gt;int minNumber = numbers[0];&lt;br&gt;&lt;/div&gt;" style="shape=parallelogram;perimeter=parallelogramPerimeter;whiteSpace=wrap;html=1;fixedSize=1;" vertex="1" parent="WIyWlLk6GJQsqaUBKTNV-1">
          <mxGeometry x="45" y="140" width="210" height="70" as="geometry" />
        </mxCell>
        <mxCell id="EokDFovthAWHypJDRWrs-6" value="" style="edgeStyle=orthogonalEdgeStyle;rounded=0;orthogonalLoop=1;jettySize=auto;html=1;" edge="1" parent="WIyWlLk6GJQsqaUBKTNV-1" source="EokDFovthAWHypJDRWrs-3" target="EokDFovthAWHypJDRWrs-5">
          <mxGeometry relative="1" as="geometry" />
        </mxCell>
        <mxCell id="EokDFovthAWHypJDRWrs-7" value="true" style="edgeLabel;html=1;align=center;verticalAlign=middle;resizable=0;points=[];" vertex="1" connectable="0" parent="EokDFovthAWHypJDRWrs-6">
          <mxGeometry x="-0.1667" y="1" relative="1" as="geometry">
            <mxPoint as="offset" />
          </mxGeometry>
        </mxCell>
        <mxCell id="EokDFovthAWHypJDRWrs-9" value="" style="edgeStyle=orthogonalEdgeStyle;rounded=0;orthogonalLoop=1;jettySize=auto;html=1;" edge="1" parent="WIyWlLk6GJQsqaUBKTNV-1" source="EokDFovthAWHypJDRWrs-3" target="EokDFovthAWHypJDRWrs-8">
          <mxGeometry relative="1" as="geometry" />
        </mxCell>
        <mxCell id="EokDFovthAWHypJDRWrs-17" value="false" style="edgeLabel;html=1;align=center;verticalAlign=middle;resizable=0;points=[];" vertex="1" connectable="0" parent="EokDFovthAWHypJDRWrs-9">
          <mxGeometry x="-0.1273" y="-3" relative="1" as="geometry">
            <mxPoint as="offset" />
          </mxGeometry>
        </mxCell>
        <mxCell id="EokDFovthAWHypJDRWrs-3" value="for(int i = 1; i&amp;lt;numbers.Length; i++)" style="shape=hexagon;perimeter=hexagonPerimeter2;whiteSpace=wrap;html=1;fixedSize=1;" vertex="1" parent="WIyWlLk6GJQsqaUBKTNV-1">
          <mxGeometry x="85" y="280" width="130" height="90" as="geometry" />
        </mxCell>
        <mxCell id="EokDFovthAWHypJDRWrs-12" style="edgeStyle=orthogonalEdgeStyle;rounded=0;orthogonalLoop=1;jettySize=auto;html=1;entryX=0;entryY=0.5;entryDx=0;entryDy=0;" edge="1" parent="WIyWlLk6GJQsqaUBKTNV-1" source="EokDFovthAWHypJDRWrs-5" target="EokDFovthAWHypJDRWrs-3">
          <mxGeometry relative="1" as="geometry">
            <Array as="points">
              <mxPoint x="65" y="480" />
              <mxPoint x="65" y="325" />
            </Array>
          </mxGeometry>
        </mxCell>
        <mxCell id="EokDFovthAWHypJDRWrs-18" value="false" style="edgeLabel;html=1;align=center;verticalAlign=middle;resizable=0;points=[];" vertex="1" connectable="0" parent="EokDFovthAWHypJDRWrs-12">
          <mxGeometry x="0.0537" y="1" relative="1" as="geometry">
            <mxPoint as="offset" />
          </mxGeometry>
        </mxCell>
        <mxCell id="EokDFovthAWHypJDRWrs-15" value="" style="edgeStyle=orthogonalEdgeStyle;rounded=0;orthogonalLoop=1;jettySize=auto;html=1;" edge="1" parent="WIyWlLk6GJQsqaUBKTNV-1" source="EokDFovthAWHypJDRWrs-5" target="EokDFovthAWHypJDRWrs-14">
          <mxGeometry relative="1" as="geometry" />
        </mxCell>
        <mxCell id="EokDFovthAWHypJDRWrs-19" value="true" style="edgeLabel;html=1;align=center;verticalAlign=middle;resizable=0;points=[];" vertex="1" connectable="0" parent="EokDFovthAWHypJDRWrs-15">
          <mxGeometry x="-0.45" y="1" relative="1" as="geometry">
            <mxPoint as="offset" />
          </mxGeometry>
        </mxCell>
        <mxCell id="EokDFovthAWHypJDRWrs-5" value="if (numbers[i] &amp;lt; minNumber)" style="rhombus;whiteSpace=wrap;html=1;" vertex="1" parent="WIyWlLk6GJQsqaUBKTNV-1">
          <mxGeometry x="95" y="430" width="110" height="100" as="geometry" />
        </mxCell>
        <mxCell id="EokDFovthAWHypJDRWrs-11" value="" style="edgeStyle=orthogonalEdgeStyle;rounded=0;orthogonalLoop=1;jettySize=auto;html=1;" edge="1" parent="WIyWlLk6GJQsqaUBKTNV-1" source="EokDFovthAWHypJDRWrs-8" target="EokDFovthAWHypJDRWrs-10">
          <mxGeometry relative="1" as="geometry" />
        </mxCell>
        <mxCell id="EokDFovthAWHypJDRWrs-8" value="minNumber" style="shape=document;whiteSpace=wrap;html=1;boundedLbl=1;" vertex="1" parent="WIyWlLk6GJQsqaUBKTNV-1">
          <mxGeometry x="270" y="285" width="120" height="80" as="geometry" />
        </mxCell>
        <mxCell id="EokDFovthAWHypJDRWrs-10" value="end" style="ellipse;whiteSpace=wrap;html=1;" vertex="1" parent="WIyWlLk6GJQsqaUBKTNV-1">
          <mxGeometry x="270" y="420" width="120" height="80" as="geometry" />
        </mxCell>
        <mxCell id="EokDFovthAWHypJDRWrs-16" style="edgeStyle=orthogonalEdgeStyle;rounded=0;orthogonalLoop=1;jettySize=auto;html=1;entryX=0;entryY=0.75;entryDx=0;entryDy=0;" edge="1" parent="WIyWlLk6GJQsqaUBKTNV-1" source="EokDFovthAWHypJDRWrs-14" target="EokDFovthAWHypJDRWrs-3">
          <mxGeometry relative="1" as="geometry">
            <Array as="points">
              <mxPoint x="40" y="595" />
              <mxPoint x="40" y="345" />
            </Array>
          </mxGeometry>
        </mxCell>
        <mxCell id="EokDFovthAWHypJDRWrs-14" value="minNumber = numbers[i];" style="rounded=0;whiteSpace=wrap;html=1;" vertex="1" parent="WIyWlLk6GJQsqaUBKTNV-1">
          <mxGeometry x="80" y="570" width="140" height="50" as="geometry" />
        </mxCell>
        <mxCell id="EokDFovthAWHypJDRWrs-22" value="" style="edgeStyle=orthogonalEdgeStyle;rounded=0;orthogonalLoop=1;jettySize=auto;html=1;" edge="1" parent="WIyWlLk6GJQsqaUBKTNV-1" source="EokDFovthAWHypJDRWrs-20" target="EokDFovthAWHypJDRWrs-21">
          <mxGeometry relative="1" as="geometry" />
        </mxCell>
        <mxCell id="EokDFovthAWHypJDRWrs-20" value="start" style="ellipse;whiteSpace=wrap;html=1;" vertex="1" parent="WIyWlLk6GJQsqaUBKTNV-1">
          <mxGeometry x="530" y="10" width="120" height="80" as="geometry" />
        </mxCell>
        <mxCell id="EokDFovthAWHypJDRWrs-24" value="" style="edgeStyle=orthogonalEdgeStyle;rounded=0;orthogonalLoop=1;jettySize=auto;html=1;" edge="1" parent="WIyWlLk6GJQsqaUBKTNV-1" source="EokDFovthAWHypJDRWrs-21" target="EokDFovthAWHypJDRWrs-23">
          <mxGeometry relative="1" as="geometry" />
        </mxCell>
        <mxCell id="EokDFovthAWHypJDRWrs-21" value="int[] numbers = { 3, -4, -2, 4, 3, 9 };" style="shape=parallelogram;perimeter=parallelogramPerimeter;whiteSpace=wrap;html=1;fixedSize=1;" vertex="1" parent="WIyWlLk6GJQsqaUBKTNV-1">
          <mxGeometry x="477.5" y="150" width="225" height="50" as="geometry" />
        </mxCell>
        <mxCell id="EokDFovthAWHypJDRWrs-26" value="" style="edgeStyle=orthogonalEdgeStyle;rounded=0;orthogonalLoop=1;jettySize=auto;html=1;" edge="1" parent="WIyWlLk6GJQsqaUBKTNV-1" source="EokDFovthAWHypJDRWrs-23" target="EokDFovthAWHypJDRWrs-25">
          <mxGeometry relative="1" as="geometry" />
        </mxCell>
        <mxCell id="EokDFovthAWHypJDRWrs-27" value="true" style="edgeLabel;html=1;align=center;verticalAlign=middle;resizable=0;points=[];" vertex="1" connectable="0" parent="EokDFovthAWHypJDRWrs-26">
          <mxGeometry x="-0.0933" y="1" relative="1" as="geometry">
            <mxPoint as="offset" />
          </mxGeometry>
        </mxCell>
        <mxCell id="EokDFovthAWHypJDRWrs-23" value="for (int i = 0; i &amp;lt; numbers.Length; i++)" style="shape=hexagon;perimeter=hexagonPerimeter2;whiteSpace=wrap;html=1;fixedSize=1;" vertex="1" parent="WIyWlLk6GJQsqaUBKTNV-1">
          <mxGeometry x="525" y="275" width="130" height="90" as="geometry" />
        </mxCell>
        <mxCell id="EokDFovthAWHypJDRWrs-34" value="" style="edgeStyle=orthogonalEdgeStyle;rounded=0;orthogonalLoop=1;jettySize=auto;html=1;" edge="1" parent="WIyWlLk6GJQsqaUBKTNV-1" source="EokDFovthAWHypJDRWrs-25">
          <mxGeometry relative="1" as="geometry">
            <mxPoint x="590" y="600" as="targetPoint" />
          </mxGeometry>
        </mxCell>
        <mxCell id="EokDFovthAWHypJDRWrs-40" value="false" style="edgeLabel;html=1;align=center;verticalAlign=middle;resizable=0;points=[];" vertex="1" connectable="0" parent="EokDFovthAWHypJDRWrs-34">
          <mxGeometry x="-0.0083" relative="1" as="geometry">
            <mxPoint as="offset" />
          </mxGeometry>
        </mxCell>
        <mxCell id="EokDFovthAWHypJDRWrs-42" value="" style="edgeStyle=orthogonalEdgeStyle;rounded=0;orthogonalLoop=1;jettySize=auto;html=1;" edge="1" parent="WIyWlLk6GJQsqaUBKTNV-1" source="EokDFovthAWHypJDRWrs-25" target="EokDFovthAWHypJDRWrs-41">
          <mxGeometry relative="1" as="geometry" />
        </mxCell>
        <mxCell id="EokDFovthAWHypJDRWrs-43" value="true" style="edgeLabel;html=1;align=center;verticalAlign=middle;resizable=0;points=[];" vertex="1" connectable="0" parent="EokDFovthAWHypJDRWrs-42">
          <mxGeometry x="-0.2762" relative="1" as="geometry">
            <mxPoint as="offset" />
          </mxGeometry>
        </mxCell>
        <mxCell id="EokDFovthAWHypJDRWrs-25" value="if (numbers[i] &lt; 0)" style="rhombus;whiteSpace=wrap;html=1;" vertex="1" parent="WIyWlLk6GJQsqaUBKTNV-1">
          <mxGeometry x="530" y="440" width="120" height="100" as="geometry" />
        </mxCell>
        <mxCell id="EokDFovthAWHypJDRWrs-44" style="edgeStyle=orthogonalEdgeStyle;rounded=0;orthogonalLoop=1;jettySize=auto;html=1;exitX=0;exitY=0.5;exitDx=0;exitDy=0;entryX=0;entryY=0.5;entryDx=0;entryDy=0;" edge="1" parent="WIyWlLk6GJQsqaUBKTNV-1" source="EokDFovthAWHypJDRWrs-38" target="EokDFovthAWHypJDRWrs-25">
          <mxGeometry relative="1" as="geometry" />
        </mxCell>
        <mxCell id="EokDFovthAWHypJDRWrs-52" value="true" style="edgeLabel;html=1;align=center;verticalAlign=middle;resizable=0;points=[];" vertex="1" connectable="0" parent="EokDFovthAWHypJDRWrs-44">
          <mxGeometry x="-0.1579" relative="1" as="geometry">
            <mxPoint as="offset" />
          </mxGeometry>
        </mxCell>
        <mxCell id="EokDFovthAWHypJDRWrs-47" value="" style="edgeStyle=orthogonalEdgeStyle;rounded=0;orthogonalLoop=1;jettySize=auto;html=1;" edge="1" parent="WIyWlLk6GJQsqaUBKTNV-1" source="EokDFovthAWHypJDRWrs-38" target="EokDFovthAWHypJDRWrs-46">
          <mxGeometry relative="1" as="geometry" />
        </mxCell>
        <mxCell id="EokDFovthAWHypJDRWrs-51" value="false" style="edgeLabel;html=1;align=center;verticalAlign=middle;resizable=0;points=[];" vertex="1" connectable="0" parent="EokDFovthAWHypJDRWrs-47">
          <mxGeometry x="-0.175" y="-3" relative="1" as="geometry">
            <mxPoint as="offset" />
          </mxGeometry>
        </mxCell>
        <mxCell id="EokDFovthAWHypJDRWrs-38" value="&lt;div&gt;for (int j = numbers.Length - 1; j &amp;gt;= 0; j--)&lt;/div&gt;&lt;div&gt;&lt;br&gt;&lt;/div&gt;" style="shape=hexagon;perimeter=hexagonPerimeter2;whiteSpace=wrap;html=1;fixedSize=1;" vertex="1" parent="WIyWlLk6GJQsqaUBKTNV-1">
          <mxGeometry x="530" y="600" width="120" height="80" as="geometry" />
        </mxCell>
        <mxCell id="EokDFovthAWHypJDRWrs-53" style="edgeStyle=orthogonalEdgeStyle;rounded=0;orthogonalLoop=1;jettySize=auto;html=1;exitX=0.5;exitY=0;exitDx=0;exitDy=0;entryX=0.625;entryY=1;entryDx=0;entryDy=0;" edge="1" parent="WIyWlLk6GJQsqaUBKTNV-1" source="EokDFovthAWHypJDRWrs-41" target="EokDFovthAWHypJDRWrs-23">
          <mxGeometry relative="1" as="geometry" />
        </mxCell>
        <mxCell id="EokDFovthAWHypJDRWrs-41" value="numbers[i] = -numbers[i];" style="rounded=0;whiteSpace=wrap;html=1;" vertex="1" parent="WIyWlLk6GJQsqaUBKTNV-1">
          <mxGeometry x="702.5" y="460" width="120" height="60" as="geometry" />
        </mxCell>
        <mxCell id="EokDFovthAWHypJDRWrs-49" value="" style="edgeStyle=orthogonalEdgeStyle;rounded=0;orthogonalLoop=1;jettySize=auto;html=1;" edge="1" parent="WIyWlLk6GJQsqaUBKTNV-1" source="EokDFovthAWHypJDRWrs-46" target="EokDFovthAWHypJDRWrs-48">
          <mxGeometry relative="1" as="geometry" />
        </mxCell>
        <mxCell id="EokDFovthAWHypJDRWrs-46" value="numbers[j]" style="shape=document;whiteSpace=wrap;html=1;boundedLbl=1;" vertex="1" parent="WIyWlLk6GJQsqaUBKTNV-1">
          <mxGeometry x="730" y="600" width="120" height="80" as="geometry" />
        </mxCell>
        <mxCell id="EokDFovthAWHypJDRWrs-48" value="end" style="ellipse;whiteSpace=wrap;html=1;" vertex="1" parent="WIyWlLk6GJQsqaUBKTNV-1">
          <mxGeometry x="750" y="760" width="80" height="50" as="geometry" />
        </mxCell>
        <mxCell id="EokDFovthAWHypJDRWrs-54" style="edgeStyle=orthogonalEdgeStyle;rounded=0;orthogonalLoop=1;jettySize=auto;html=1;exitX=0;exitY=0.5;exitDx=0;exitDy=0;entryX=0.067;entryY=0.8;entryDx=0;entryDy=0;entryPerimeter=0;" edge="1" parent="WIyWlLk6GJQsqaUBKTNV-1" source="EokDFovthAWHypJDRWrs-23" target="EokDFovthAWHypJDRWrs-38">
          <mxGeometry relative="1" as="geometry">
            <Array as="points">
              <mxPoint x="460" y="320" />
              <mxPoint x="460" y="660" />
              <mxPoint x="538" y="660" />
            </Array>
          </mxGeometry>
        </mxCell>
        <mxCell id="EokDFovthAWHypJDRWrs-55" value="false" style="edgeLabel;html=1;align=center;verticalAlign=middle;resizable=0;points=[];" vertex="1" connectable="0" parent="EokDFovthAWHypJDRWrs-54">
          <mxGeometry x="-0.1376" relative="1" as="geometry">
            <mxPoint as="offset" />
          </mxGeometry>
        </mxCell>
        <mxCell id="EokDFovthAWHypJDRWrs-58" value="" style="edgeStyle=orthogonalEdgeStyle;rounded=0;orthogonalLoop=1;jettySize=auto;html=1;" edge="1" parent="WIyWlLk6GJQsqaUBKTNV-1" source="EokDFovthAWHypJDRWrs-56" target="EokDFovthAWHypJDRWrs-57">
          <mxGeometry relative="1" as="geometry" />
        </mxCell>
        <mxCell id="EokDFovthAWHypJDRWrs-56" value="start" style="ellipse;whiteSpace=wrap;html=1;" vertex="1" parent="WIyWlLk6GJQsqaUBKTNV-1">
          <mxGeometry x="1090" width="120" height="80" as="geometry" />
        </mxCell>
        <mxCell id="EokDFovthAWHypJDRWrs-60" value="" style="edgeStyle=orthogonalEdgeStyle;rounded=0;orthogonalLoop=1;jettySize=auto;html=1;" edge="1" parent="WIyWlLk6GJQsqaUBKTNV-1" source="EokDFovthAWHypJDRWrs-57" target="EokDFovthAWHypJDRWrs-59">
          <mxGeometry relative="1" as="geometry" />
        </mxCell>
        <mxCell id="EokDFovthAWHypJDRWrs-57" value="&lt;div&gt;string[] array1 = { &quot;Yusif&quot;, &quot;Resul&quot;, &quot;Enver&quot; };&lt;/div&gt;&lt;div&gt;&lt;div&gt;Console.Write(&quot;Enter index: &quot;);&lt;/div&gt;&lt;div&gt;int index = Convert.ToByte(Console.ReadLine());&lt;/div&gt;&lt;/div&gt;&lt;div&gt;&lt;br&gt;&lt;/div&gt;" style="shape=parallelogram;perimeter=parallelogramPerimeter;whiteSpace=wrap;html=1;fixedSize=1;" vertex="1" parent="WIyWlLk6GJQsqaUBKTNV-1">
          <mxGeometry x="1000" y="190" width="305" height="110" as="geometry" />
        </mxCell>
        <mxCell id="EokDFovthAWHypJDRWrs-62" value="" style="edgeStyle=orthogonalEdgeStyle;rounded=0;orthogonalLoop=1;jettySize=auto;html=1;" edge="1" parent="WIyWlLk6GJQsqaUBKTNV-1" source="EokDFovthAWHypJDRWrs-59" target="EokDFovthAWHypJDRWrs-61">
          <mxGeometry relative="1" as="geometry" />
        </mxCell>
        <mxCell id="EokDFovthAWHypJDRWrs-63" value="true" style="edgeLabel;html=1;align=center;verticalAlign=middle;resizable=0;points=[];" vertex="1" connectable="0" parent="EokDFovthAWHypJDRWrs-62">
          <mxGeometry x="-0.3893" y="2" relative="1" as="geometry">
            <mxPoint as="offset" />
          </mxGeometry>
        </mxCell>
        <mxCell id="EokDFovthAWHypJDRWrs-65" value="" style="edgeStyle=orthogonalEdgeStyle;rounded=0;orthogonalLoop=1;jettySize=auto;html=1;" edge="1" parent="WIyWlLk6GJQsqaUBKTNV-1" source="EokDFovthAWHypJDRWrs-59" target="EokDFovthAWHypJDRWrs-64">
          <mxGeometry relative="1" as="geometry" />
        </mxCell>
        <mxCell id="EokDFovthAWHypJDRWrs-74" value="false" style="edgeLabel;html=1;align=center;verticalAlign=middle;resizable=0;points=[];" vertex="1" connectable="0" parent="EokDFovthAWHypJDRWrs-65">
          <mxGeometry x="-0.3908" y="-2" relative="1" as="geometry">
            <mxPoint as="offset" />
          </mxGeometry>
        </mxCell>
        <mxCell id="EokDFovthAWHypJDRWrs-59" value="if (index &amp;lt; array1.Length)" style="rhombus;whiteSpace=wrap;html=1;" vertex="1" parent="WIyWlLk6GJQsqaUBKTNV-1">
          <mxGeometry x="1057.5" y="390" width="190" height="140" as="geometry" />
        </mxCell>
        <mxCell id="EokDFovthAWHypJDRWrs-67" value="" style="edgeStyle=orthogonalEdgeStyle;rounded=0;orthogonalLoop=1;jettySize=auto;html=1;" edge="1" parent="WIyWlLk6GJQsqaUBKTNV-1" source="EokDFovthAWHypJDRWrs-61" target="EokDFovthAWHypJDRWrs-66">
          <mxGeometry relative="1" as="geometry" />
        </mxCell>
        <mxCell id="EokDFovthAWHypJDRWrs-61" value="string name = array1[index];" style="rounded=0;whiteSpace=wrap;html=1;" vertex="1" parent="WIyWlLk6GJQsqaUBKTNV-1">
          <mxGeometry x="1057.5" y="610" width="190" height="100" as="geometry" />
        </mxCell>
        <mxCell id="EokDFovthAWHypJDRWrs-64" value="&lt;h3&gt;&amp;nbsp; &amp;nbsp;Duzgun deyer daxil edin&lt;/h3&gt;&lt;div&gt;&lt;br&gt;&lt;/div&gt;" style="shape=document;whiteSpace=wrap;html=1;boundedLbl=1;" vertex="1" parent="WIyWlLk6GJQsqaUBKTNV-1">
          <mxGeometry x="1362.5" y="420" width="187.5" height="130" as="geometry" />
        </mxCell>
        <mxCell id="EokDFovthAWHypJDRWrs-69" value="" style="edgeStyle=orthogonalEdgeStyle;rounded=0;orthogonalLoop=1;jettySize=auto;html=1;" edge="1" parent="WIyWlLk6GJQsqaUBKTNV-1" source="EokDFovthAWHypJDRWrs-66" target="EokDFovthAWHypJDRWrs-68">
          <mxGeometry relative="1" as="geometry" />
        </mxCell>
        <mxCell id="EokDFovthAWHypJDRWrs-71" value="false" style="edgeLabel;html=1;align=center;verticalAlign=middle;resizable=0;points=[];" vertex="1" connectable="0" parent="EokDFovthAWHypJDRWrs-69">
          <mxGeometry x="-0.0206" y="2" relative="1" as="geometry">
            <mxPoint as="offset" />
          </mxGeometry>
        </mxCell>
        <mxCell id="EokDFovthAWHypJDRWrs-72" style="edgeStyle=orthogonalEdgeStyle;rounded=0;orthogonalLoop=1;jettySize=auto;html=1;exitX=0;exitY=0.5;exitDx=0;exitDy=0;entryX=0;entryY=0.5;entryDx=0;entryDy=0;" edge="1" parent="WIyWlLk6GJQsqaUBKTNV-1" source="EokDFovthAWHypJDRWrs-66" target="EokDFovthAWHypJDRWrs-61">
          <mxGeometry relative="1" as="geometry" />
        </mxCell>
        <mxCell id="EokDFovthAWHypJDRWrs-73" value="true" style="edgeLabel;html=1;align=center;verticalAlign=middle;resizable=0;points=[];" vertex="1" connectable="0" parent="EokDFovthAWHypJDRWrs-72">
          <mxGeometry x="0.0548" y="-1" relative="1" as="geometry">
            <mxPoint as="offset" />
          </mxGeometry>
        </mxCell>
        <mxCell id="EokDFovthAWHypJDRWrs-66" value="&lt;div&gt;&amp;nbsp; &amp;nbsp; for (int i = name.Length - 1; i &amp;gt;= 0; i--)&lt;/div&gt;&lt;div&gt;&lt;br&gt;&lt;/div&gt;" style="shape=hexagon;perimeter=hexagonPerimeter2;whiteSpace=wrap;html=1;fixedSize=1;" vertex="1" parent="WIyWlLk6GJQsqaUBKTNV-1">
          <mxGeometry x="1067.5" y="800" width="170" height="120" as="geometry" />
        </mxCell>
        <mxCell id="EokDFovthAWHypJDRWrs-77" style="edgeStyle=orthogonalEdgeStyle;rounded=0;orthogonalLoop=1;jettySize=auto;html=1;" edge="1" parent="WIyWlLk6GJQsqaUBKTNV-1" source="EokDFovthAWHypJDRWrs-68">
          <mxGeometry relative="1" as="geometry">
            <mxPoint x="1590" y="720" as="targetPoint" />
          </mxGeometry>
        </mxCell>
        <mxCell id="EokDFovthAWHypJDRWrs-68" value="name[i]" style="shape=document;whiteSpace=wrap;html=1;boundedLbl=1;" vertex="1" parent="WIyWlLk6GJQsqaUBKTNV-1">
          <mxGeometry x="1362.5" y="795" width="170" height="130" as="geometry" />
        </mxCell>
        <mxCell id="EokDFovthAWHypJDRWrs-75" value="end" style="ellipse;whiteSpace=wrap;html=1;" vertex="1" parent="WIyWlLk6GJQsqaUBKTNV-1">
          <mxGeometry x="1532.5" y="630" width="120" height="80" as="geometry" />
        </mxCell>
        <mxCell id="EokDFovthAWHypJDRWrs-76" style="edgeStyle=orthogonalEdgeStyle;rounded=0;orthogonalLoop=1;jettySize=auto;html=1;entryX=0.314;entryY=-0.005;entryDx=0;entryDy=0;entryPerimeter=0;" edge="1" parent="WIyWlLk6GJQsqaUBKTNV-1" source="EokDFovthAWHypJDRWrs-64" target="EokDFovthAWHypJDRWrs-75">
          <mxGeometry relative="1" as="geometry" />
        </mxCell>
      </root>
    </mxGraphModel>
  </diagram>
</mxfile>
